<mxfile host="app.diagrams.net" modified="2021-12-15T08:21:27.864Z" agent="5.0 (Windows NT 10.0; Win64; x64) AppleWebKit/537.36 (KHTML, like Gecko) Chrome/96.0.4664.93 Safari/537.36" etag="ppmfjb8Oh7wAZMe54NfK" version="15.9.5" type="github">
  <diagram id="AsPG1sqcEy5ZO-IUigUk" name="第 1 页">
    <mxGraphModel dx="1094" dy="363" grid="1" gridSize="10" guides="1" tooltips="1" connect="1" arrows="1" fold="1" page="1" pageScale="1" pageWidth="827" pageHeight="1169" background="#FFFFFF" math="0" shadow="0">
      <root>
        <mxCell id="0" />
        <mxCell id="1" parent="0" />
        <mxCell id="89Xa8MBcNrt8iYYgglH2-23" value="" style="shape=table;startSize=0;container=1;collapsible=0;childLayout=tableLayout;fontSize=14;labelBackgroundColor=default;sketch=0;" vertex="1" parent="1">
          <mxGeometry x="70" y="330" width="600" height="40" as="geometry" />
        </mxCell>
        <mxCell id="89Xa8MBcNrt8iYYgglH2-24" value="" style="shape=partialRectangle;collapsible=0;dropTarget=0;pointerEvents=0;fillColor=none;top=0;left=0;bottom=0;right=0;points=[[0,0.5],[1,0.5]];portConstraint=eastwest;fontSize=14;" vertex="1" parent="89Xa8MBcNrt8iYYgglH2-23">
          <mxGeometry width="600" height="40" as="geometry" />
        </mxCell>
        <mxCell id="89Xa8MBcNrt8iYYgglH2-25" value="&lt;div style=&quot;font-size: 14px;&quot;&gt;zlbytes&lt;br style=&quot;font-size: 14px;&quot;&gt;              &lt;/div&gt;" style="shape=partialRectangle;html=1;whiteSpace=wrap;connectable=0;overflow=hidden;fillColor=#d5e8d4;top=0;left=0;bottom=0;right=0;pointerEvents=1;fontSize=14;strokeColor=#82b366;" vertex="1" parent="89Xa8MBcNrt8iYYgglH2-24">
          <mxGeometry width="60" height="40" as="geometry">
            <mxRectangle width="60" height="40" as="alternateBounds" />
          </mxGeometry>
        </mxCell>
        <mxCell id="89Xa8MBcNrt8iYYgglH2-26" value="&lt;div style=&quot;font-size: 14px;&quot;&gt;zltail&lt;br style=&quot;font-size: 14px;&quot;&gt;              &lt;/div&gt;" style="shape=partialRectangle;html=1;whiteSpace=wrap;connectable=0;overflow=hidden;fillColor=#e1d5e7;top=0;left=0;bottom=0;right=0;pointerEvents=1;fontSize=14;strokeColor=#9673a6;" vertex="1" parent="89Xa8MBcNrt8iYYgglH2-24">
          <mxGeometry x="60" width="60" height="40" as="geometry">
            <mxRectangle width="60" height="40" as="alternateBounds" />
          </mxGeometry>
        </mxCell>
        <mxCell id="89Xa8MBcNrt8iYYgglH2-27" value="&lt;div style=&quot;font-size: 14px;&quot;&gt;zllen&lt;br style=&quot;font-size: 14px;&quot;&gt;              &lt;/div&gt;" style="shape=partialRectangle;html=1;whiteSpace=wrap;connectable=0;overflow=hidden;fillColor=#fff2cc;top=0;left=0;bottom=0;right=0;pointerEvents=1;fontSize=14;strokeColor=#d6b656;gradientDirection=radial;" vertex="1" parent="89Xa8MBcNrt8iYYgglH2-24">
          <mxGeometry x="120" width="60" height="40" as="geometry">
            <mxRectangle width="60" height="40" as="alternateBounds" />
          </mxGeometry>
        </mxCell>
        <mxCell id="89Xa8MBcNrt8iYYgglH2-28" value="&lt;div style=&quot;font-size: 14px;&quot;&gt;entry&lt;br style=&quot;font-size: 14px;&quot;&gt;              &lt;/div&gt;" style="shape=partialRectangle;html=1;whiteSpace=wrap;connectable=0;overflow=hidden;fillColor=#f8cecc;top=0;left=0;bottom=0;right=0;pointerEvents=1;fontSize=14;strokeColor=#b85450;" vertex="1" parent="89Xa8MBcNrt8iYYgglH2-24">
          <mxGeometry x="180" width="60" height="40" as="geometry">
            <mxRectangle width="60" height="40" as="alternateBounds" />
          </mxGeometry>
        </mxCell>
        <mxCell id="89Xa8MBcNrt8iYYgglH2-29" value="&lt;div style=&quot;font-size: 14px;&quot;&gt;...&lt;/div&gt;" style="shape=partialRectangle;html=1;whiteSpace=wrap;connectable=0;overflow=hidden;fillColor=#f8cecc;top=0;left=0;bottom=0;right=0;pointerEvents=1;fontSize=14;strokeColor=#b85450;" vertex="1" parent="89Xa8MBcNrt8iYYgglH2-24">
          <mxGeometry x="240" width="60" height="40" as="geometry">
            <mxRectangle width="60" height="40" as="alternateBounds" />
          </mxGeometry>
        </mxCell>
        <mxCell id="89Xa8MBcNrt8iYYgglH2-30" value="&lt;div style=&quot;font-size: 14px;&quot;&gt;entry&lt;br style=&quot;font-size: 14px;&quot;&gt;              &lt;/div&gt;" style="shape=partialRectangle;html=1;whiteSpace=wrap;connectable=0;overflow=hidden;fillColor=#f8cecc;top=0;left=0;bottom=0;right=0;pointerEvents=1;fontSize=14;strokeColor=#b85450;" vertex="1" parent="89Xa8MBcNrt8iYYgglH2-24">
          <mxGeometry x="300" width="60" height="40" as="geometry">
            <mxRectangle width="60" height="40" as="alternateBounds" />
          </mxGeometry>
        </mxCell>
        <mxCell id="89Xa8MBcNrt8iYYgglH2-31" value="&lt;div style=&quot;font-size: 14px;&quot;&gt;zlend&lt;br style=&quot;font-size: 14px;&quot;&gt;              &lt;/div&gt;" style="shape=partialRectangle;html=1;whiteSpace=wrap;connectable=0;overflow=hidden;fillColor=#d5e8d4;top=0;left=0;bottom=0;right=0;pointerEvents=1;fontSize=14;strokeColor=#82b366;" vertex="1" parent="89Xa8MBcNrt8iYYgglH2-24">
          <mxGeometry x="360" width="60" height="40" as="geometry">
            <mxRectangle width="60" height="40" as="alternateBounds" />
          </mxGeometry>
        </mxCell>
        <mxCell id="89Xa8MBcNrt8iYYgglH2-32" value="" style="shape=partialRectangle;html=1;whiteSpace=wrap;connectable=0;overflow=hidden;fillColor=none;top=0;left=0;bottom=0;right=0;pointerEvents=1;fontSize=14;" vertex="1" parent="89Xa8MBcNrt8iYYgglH2-24">
          <mxGeometry x="420" width="60" height="40" as="geometry">
            <mxRectangle width="60" height="40" as="alternateBounds" />
          </mxGeometry>
        </mxCell>
        <mxCell id="89Xa8MBcNrt8iYYgglH2-33" value="" style="shape=partialRectangle;html=1;whiteSpace=wrap;connectable=0;overflow=hidden;fillColor=none;top=0;left=0;bottom=0;right=0;pointerEvents=1;fontSize=14;" vertex="1" parent="89Xa8MBcNrt8iYYgglH2-24">
          <mxGeometry x="480" width="60" height="40" as="geometry">
            <mxRectangle width="60" height="40" as="alternateBounds" />
          </mxGeometry>
        </mxCell>
        <mxCell id="89Xa8MBcNrt8iYYgglH2-34" value="" style="shape=partialRectangle;html=1;whiteSpace=wrap;connectable=0;overflow=hidden;fillColor=none;top=0;left=0;bottom=0;right=0;pointerEvents=1;fontSize=14;" vertex="1" parent="89Xa8MBcNrt8iYYgglH2-24">
          <mxGeometry x="540" width="60" height="40" as="geometry">
            <mxRectangle width="60" height="40" as="alternateBounds" />
          </mxGeometry>
        </mxCell>
        <mxCell id="89Xa8MBcNrt8iYYgglH2-36" value="" style="shape=curlyBracket;whiteSpace=wrap;html=1;rounded=1;flipH=1;labelBackgroundColor=default;sketch=1;fontSize=14;gradientColor=none;gradientDirection=radial;direction=north;" vertex="1" parent="1">
          <mxGeometry x="70" y="380" width="59" height="20" as="geometry" />
        </mxCell>
        <mxCell id="89Xa8MBcNrt8iYYgglH2-37" value="" style="shape=curlyBracket;whiteSpace=wrap;html=1;rounded=1;labelBackgroundColor=default;sketch=1;fontSize=14;gradientColor=none;gradientDirection=radial;direction=south;" vertex="1" parent="1">
          <mxGeometry x="130" y="300" width="59" height="21" as="geometry" />
        </mxCell>
        <mxCell id="89Xa8MBcNrt8iYYgglH2-38" value="" style="shape=curlyBracket;whiteSpace=wrap;html=1;rounded=1;labelBackgroundColor=default;sketch=1;fontSize=14;gradientColor=none;gradientDirection=radial;direction=south;" vertex="1" parent="1">
          <mxGeometry x="250" y="290" width="179" height="29" as="geometry" />
        </mxCell>
        <mxCell id="89Xa8MBcNrt8iYYgglH2-39" value="" style="shape=curlyBracket;whiteSpace=wrap;html=1;rounded=1;flipH=1;labelBackgroundColor=default;sketch=1;fontSize=14;gradientColor=none;gradientDirection=radial;direction=north;" vertex="1" parent="1">
          <mxGeometry x="190" y="380" width="59" height="20" as="geometry" />
        </mxCell>
        <mxCell id="89Xa8MBcNrt8iYYgglH2-40" value="" style="shape=curlyBracket;whiteSpace=wrap;html=1;rounded=1;flipH=1;labelBackgroundColor=default;sketch=1;fontSize=14;gradientColor=none;gradientDirection=radial;direction=north;" vertex="1" parent="1">
          <mxGeometry x="430" y="380" width="59" height="20" as="geometry" />
        </mxCell>
        <mxCell id="89Xa8MBcNrt8iYYgglH2-42" value="ziplist 占用的字节总数" style="text;html=1;resizable=0;autosize=1;align=center;verticalAlign=middle;points=[];fillColor=none;strokeColor=none;rounded=0;labelBackgroundColor=default;sketch=1;fontSize=14;" vertex="1" parent="1">
          <mxGeometry x="24.5" y="410" width="150" height="20" as="geometry" />
        </mxCell>
        <mxCell id="89Xa8MBcNrt8iYYgglH2-43" value="最后一项 entry 偏移字节数" style="text;html=1;resizable=0;autosize=1;align=center;verticalAlign=middle;points=[];fillColor=none;strokeColor=none;rounded=0;labelBackgroundColor=default;sketch=1;fontSize=14;" vertex="1" parent="1">
          <mxGeometry x="65" y="260" width="180" height="20" as="geometry" />
        </mxCell>
        <mxCell id="89Xa8MBcNrt8iYYgglH2-44" value="数据项 entry 的个数" style="text;html=1;resizable=0;autosize=1;align=center;verticalAlign=middle;points=[];fillColor=none;strokeColor=none;rounded=0;labelBackgroundColor=default;sketch=1;fontSize=14;" vertex="1" parent="1">
          <mxGeometry x="185" y="410" width="140" height="20" as="geometry" />
        </mxCell>
      </root>
    </mxGraphModel>
  </diagram>
</mxfile>
